<?xml version="1.0" encoding="utf-8"?>
<!-- Generator: Adobe Illustrator 18.1.0, SVG Export Plug-In . SVG Version: 6.00 Build 0)  -->
<svg version="1.1" id="Layer_1" xmlns="http://www.w3.org/2000/svg" xmlns:xlink="http://www.w3.org/1999/xlink" x="0px" y="0px"
	 viewBox="0 0 137.1 137.8" enable-background="new 0 0 137.1 137.8" xml:space="preserve">
<g>
	<defs>
		<rect id="SVGID_1_" x="15.4" y="16" width="106.2" height="106.2"/>
	</defs>
	<clipPath id="SVGID_2_">
		<use xlink:href="#SVGID_1_"  overflow="visible"/>
	</clipPath>
	<path clip-path="url(#SVGID_2_)" fill="#FFFFFF" d="M83,94c-4.1,0-7.4-3.3-7.4-7.4s3.3-7.4,7.4-7.4c4.1,0,7.4,3.3,7.4,7.4
		S87.1,94,83,94 M48.1,76.5c-4.1,0-7.4-3.3-7.4-7.4c0-4.1,3.3-7.4,7.4-7.4c4.1,0,7.4,3.3,7.4,7.4C55.4,73.2,52.1,76.5,48.1,76.5
		 M83,44.3c4.1,0,7.4,3.3,7.4,7.4c0,4.1-3.3,7.4-7.4,7.4c-4.1,0-7.4-3.3-7.4-7.4C75.7,47.6,79,44.3,83,44.3 M83,77.4
		c-3.3,0-6.1,1.7-7.8,4.3c0,0,0,0,0,0l-18.5-9.2c0,0,0,0,0,0c0.4-1,0.6-2.1,0.6-3.3c0-1.2-0.2-2.3-0.6-3.3c0,0,0,0,0,0l18.5-9.2
		c0,0,0,0,0,0c1.6,2.6,4.5,4.3,7.8,4.3c5.1,0,9.2-4.1,9.2-9.2c0-5.1-4.1-9.2-9.2-9.2s-9.2,4.1-9.2,9.2c0,1.2,0.2,2.3,0.6,3.3
		c0,0,0,0,0,0l-18.5,9.2c0,0,0,0,0,0c-1.6-2.6-4.5-4.3-7.8-4.3c-5.1,0-9.2,4.1-9.2,9.2c0,5.1,4.1,9.2,9.2,9.2c3.3,0,6.1-1.7,7.8-4.3
		c0,0,0,0,0,0l18.5,9.2c0,0,0,0,0,0c-0.4,1-0.6,2.1-0.6,3.3c0,5.1,4.1,9.2,9.2,9.2s9.2-4.1,9.2-9.2C92.2,81.5,88.1,77.4,83,77.4"/>
	<path clip-path="url(#SVGID_2_)" fill="none" stroke="#FFFFFF" stroke-width="0.5" stroke-miterlimit="10" d="M83,94
		c-4.1,0-7.4-3.3-7.4-7.4s3.3-7.4,7.4-7.4c4.1,0,7.4,3.3,7.4,7.4S87.1,94,83,94z M48.1,76.5c-4.1,0-7.4-3.3-7.4-7.4
		c0-4.1,3.3-7.4,7.4-7.4c4.1,0,7.4,3.3,7.4,7.4C55.4,73.2,52.1,76.5,48.1,76.5z M83,44.3c4.1,0,7.4,3.3,7.4,7.4
		c0,4.1-3.3,7.4-7.4,7.4c-4.1,0-7.4-3.3-7.4-7.4C75.7,47.6,79,44.3,83,44.3z M83,77.4c-3.3,0-6.1,1.7-7.8,4.3c0,0,0,0,0,0l-18.5-9.2
		c0,0,0,0,0,0c0.4-1,0.6-2.1,0.6-3.3c0-1.2-0.2-2.3-0.6-3.3c0,0,0,0,0,0l18.5-9.2c0,0,0,0,0,0c1.6,2.6,4.5,4.3,7.8,4.3
		c5.1,0,9.2-4.1,9.2-9.2c0-5.1-4.1-9.2-9.2-9.2s-9.2,4.1-9.2,9.2c0,1.2,0.2,2.3,0.6,3.3c0,0,0,0,0,0l-18.5,9.2c0,0,0,0,0,0
		c-1.6-2.6-4.5-4.3-7.8-4.3c-5.1,0-9.2,4.1-9.2,9.2c0,5.1,4.1,9.2,9.2,9.2c3.3,0,6.1-1.7,7.8-4.3c0,0,0,0,0,0l18.5,9.2c0,0,0,0,0,0
		c-0.4,1-0.6,2.1-0.6,3.3c0,5.1,4.1,9.2,9.2,9.2s9.2-4.1,9.2-9.2C92.2,81.5,88.1,77.4,83,77.4z"/>
	<circle clip-path="url(#SVGID_2_)" fill="none" stroke="#FFFFFF" stroke-width="1.5" cx="68.5" cy="69.1" r="52.4"/>
</g>
</svg>
