<?xml version="1.0" encoding="utf-8"?>
<!-- Generator: Adobe Illustrator 18.1.0, SVG Export Plug-In . SVG Version: 6.00 Build 0)  -->
<svg version="1.1" id="Layer_1" xmlns="http://www.w3.org/2000/svg" xmlns:xlink="http://www.w3.org/1999/xlink" x="0px" y="0px"
	 viewBox="0 0 140.8 140.8" enable-background="new 0 0 140.8 140.8" xml:space="preserve">
<g>
	<g>
		<path fill="#128B8A" d="M84.9,96.2c-4.1,0-7.4-3.3-7.4-7.4s3.3-7.4,7.4-7.4c4.1,0,7.4,3.3,7.4,7.4S89,96.2,84.9,96.2 M50,78.8
			c-4.1,0-7.4-3.3-7.4-7.4c0-4.1,3.3-7.4,7.4-7.4c4.1,0,7.4,3.3,7.4,7.4C57.3,75.5,54,78.8,50,78.8 M84.9,46.6
			c4.1,0,7.4,3.3,7.4,7.4c0,4.1-3.3,7.4-7.4,7.4c-4.1,0-7.4-3.3-7.4-7.4C77.5,49.9,80.8,46.6,84.9,46.6 M84.9,79.7
			c-3.3,0-6.1,1.7-7.8,4.3c0,0,0,0,0,0l-18.5-9.2c0,0,0,0,0,0c0.4-1,0.6-2.1,0.6-3.3c0-1.2-0.2-2.3-0.6-3.3c0,0,0,0,0,0l18.5-9.2
			c0,0,0,0,0,0c1.6,2.6,4.5,4.3,7.8,4.3c5.1,0,9.2-4.1,9.2-9.2c0-5.1-4.1-9.2-9.2-9.2s-9.2,4.1-9.2,9.2c0,1.2,0.2,2.3,0.6,3.3
			c0,0,0,0,0,0l-18.5,9.2c0,0,0,0,0,0c-1.6-2.6-4.5-4.3-7.8-4.3c-5.1,0-9.2,4.1-9.2,9.2c0,5.1,4.1,9.2,9.2,9.2
			c3.3,0,6.1-1.7,7.8-4.3c0,0,0,0,0,0l18.5,9.2c0,0,0,0,0,0c-0.4,1-0.6,2.1-0.6,3.3c0,5.1,4.1,9.2,9.2,9.2s9.2-4.1,9.2-9.2
			C94.1,83.8,90,79.7,84.9,79.7"/>
		<path fill="none" stroke="#128B8A" stroke-width="0.5" stroke-miterlimit="10" d="M84.9,96.2c-4.1,0-7.4-3.3-7.4-7.4
			s3.3-7.4,7.4-7.4c4.1,0,7.4,3.3,7.4,7.4S89,96.2,84.9,96.2z M50,78.8c-4.1,0-7.4-3.3-7.4-7.4c0-4.1,3.3-7.4,7.4-7.4
			c4.1,0,7.4,3.3,7.4,7.4C57.3,75.5,54,78.8,50,78.8z M84.9,46.6c4.1,0,7.4,3.3,7.4,7.4c0,4.1-3.3,7.4-7.4,7.4
			c-4.1,0-7.4-3.3-7.4-7.4C77.5,49.9,80.8,46.6,84.9,46.6z M84.9,79.7c-3.3,0-6.1,1.7-7.8,4.3c0,0,0,0,0,0l-18.5-9.2c0,0,0,0,0,0
			c0.4-1,0.6-2.1,0.6-3.3c0-1.2-0.2-2.3-0.6-3.3c0,0,0,0,0,0l18.5-9.2c0,0,0,0,0,0c1.6,2.6,4.5,4.3,7.8,4.3c5.1,0,9.2-4.1,9.2-9.2
			c0-5.1-4.1-9.2-9.2-9.2s-9.2,4.1-9.2,9.2c0,1.2,0.2,2.3,0.6,3.3c0,0,0,0,0,0l-18.5,9.2c0,0,0,0,0,0c-1.6-2.6-4.5-4.3-7.8-4.3
			c-5.1,0-9.2,4.1-9.2,9.2c0,5.1,4.1,9.2,9.2,9.2c3.3,0,6.1-1.7,7.8-4.3c0,0,0,0,0,0l18.5,9.2c0,0,0,0,0,0c-0.4,1-0.6,2.1-0.6,3.3
			c0,5.1,4.1,9.2,9.2,9.2s9.2-4.1,9.2-9.2C94.1,83.8,90,79.7,84.9,79.7z"/>
		<circle fill="none" stroke="#128B8A" stroke-width="1.5" cx="70.4" cy="70.4" r="52.4"/>
	</g>
</g>
</svg>
